<svg width="186" height="186" viewBox="0 0 186 186" fill="none" xmlns="http://www.w3.org/2000/svg">
<path fill-rule="evenodd" clip-rule="evenodd" d="M90.4588 185.679C72.1722 185.133 54.4582 179.177 39.5569 168.563C24.6557 157.949 13.2364 143.155 6.7431 126.051C0.249792 108.948 -1.026 90.3027 3.0773 72.474C7.1806 54.6453 16.4787 38.4339 29.7955 25.8895C43.1124 13.3452 59.8499 5.03149 77.8917 1.99971C95.9335 -1.03207 114.469 1.35419 131.155 8.85685C147.84 16.3595 161.927 28.6415 171.632 44.1498C181.337 59.658 186.226 77.696 185.679 95.9826C184.947 120.504 174.503 143.73 156.646 160.552C138.789 177.373 114.98 186.412 90.4588 185.679ZM40.2477 112.506C38.3195 110.437 37.2854 107.69 37.3699 104.863C37.4543 102.036 38.6505 99.3555 40.6988 97.4047L46.3034 92.1555C47.2569 91.2491 48.3826 90.5435 49.6141 90.0807C50.8455 89.6179 52.1575 89.4072 53.4719 89.4611C54.7863 89.515 56.0764 89.8325 57.2658 90.3947C58.4552 90.9568 59.5195 91.7523 60.3955 92.7337L69.7132 102.997C70.1572 103.495 70.6979 103.896 71.3023 104.178C71.9068 104.46 72.5622 104.615 73.2287 104.635C73.8952 104.655 74.5587 104.539 75.1789 104.294C75.799 104.049 76.3626 103.68 76.8355 103.21L127.348 54.1605C128.287 53.2266 129.406 52.4923 130.637 52.002C131.868 51.5116 133.185 51.2753 134.51 51.307C135.835 51.3388 137.139 51.6381 138.345 52.1869C139.551 52.7358 140.633 53.5229 141.527 54.5008L146.653 60.0028C148.533 62.0626 149.538 64.7732 149.454 67.5607C149.371 70.3482 148.206 72.994 146.207 74.938L79.175 139.106C78.239 140.018 77.1303 140.735 75.9138 141.213C74.6972 141.692 73.3973 141.923 72.0903 141.892C70.7834 141.862 69.4957 141.571 68.3028 141.036C67.1098 140.502 66.0356 139.734 65.1431 138.779L40.2477 112.506Z" fill="#00B060"/>
</svg>
