<svg width="192" height="192" viewBox="0 0 192 192" fill="none" xmlns="http://www.w3.org/2000/svg">
<g clip-path="url(#clip0_9_21)">
<rect width="185" height="185" transform="translate(6.18201 0.986221) rotate(1.71102)" fill="white"/>
<path fill-rule="evenodd" clip-rule="evenodd" d="M93.4588 186.679C75.1722 186.133 57.4582 180.177 42.5569 169.563C27.6557 158.949 16.2364 144.155 9.7431 127.051C3.24979 109.948 1.974 91.3027 6.0773 73.474C10.1806 55.6453 19.4787 39.4339 32.7955 26.8895C46.1124 14.3452 62.8499 6.03149 80.8917 2.99971C98.9335 -0.0320733 117.469 2.35419 134.155 9.85685C150.84 17.3595 164.927 29.6415 174.632 45.1498C184.337 60.658 189.226 78.696 188.679 96.9826C187.947 121.504 177.503 144.73 159.646 161.552C141.789 178.373 117.98 187.412 93.4588 186.679ZM43.2477 113.506C41.3195 111.437 40.2854 108.69 40.3699 105.863C40.4543 103.036 41.6505 100.356 43.6988 98.4047L49.3034 93.1555C50.2569 92.2491 51.3826 91.5435 52.6141 91.0807C53.8455 90.6179 55.1575 90.4072 56.4719 90.4611C57.7863 90.515 59.0764 90.8325 60.2658 91.3947C61.4552 91.9568 62.5195 92.7523 63.3955 93.7337L72.7132 103.997C73.1572 104.495 73.6979 104.896 74.3023 105.178C74.9068 105.46 75.5622 105.615 76.2287 105.635C76.8952 105.655 77.5587 105.539 78.1789 105.294C78.799 105.049 79.3626 104.68 79.8355 104.21L130.348 55.1605C131.287 54.2266 132.406 53.4923 133.637 53.002C134.868 52.5116 136.185 52.2753 137.51 52.307C138.835 52.3388 140.139 52.6381 141.345 53.1869C142.551 53.7358 143.633 54.5229 144.527 55.5008L149.653 61.0028C151.533 63.0626 152.538 65.7732 152.454 68.5607C152.371 71.3482 151.206 73.994 149.207 75.938L82.175 140.106C81.239 141.018 80.1303 141.735 78.9138 142.213C77.6972 142.692 76.3973 142.923 75.0903 142.892C73.7834 142.862 72.4957 142.571 71.3028 142.036C70.1098 141.502 69.0356 140.734 68.1431 139.779L43.2477 113.506Z" fill="#00B060"/>
<path d="M171.391 29.932C175.808 30.0639 179.495 26.5908 179.627 22.1745C179.759 17.7581 176.285 14.0711 171.869 13.9392C167.453 13.8072 163.766 17.2804 163.634 21.6967C163.502 26.113 166.975 29.8001 171.391 29.932Z" fill="#00B060"/>
</g>
<defs>
<clipPath id="clip0_9_21">
<rect width="185" height="185" fill="white" transform="translate(6.18201 0.986221) rotate(1.71102)"/>
</clipPath>
</defs>
</svg>
